HIERARCHY
ROOT Hips
{
	OFFSET 0.00 0.00 0.00
	CHANNELS 6 Xposition Yposition Zposition Xrotation Yrotation Zrotation
	JOINT Spine
	{
		OFFSET 0.00000 7.06766 0.00000
		CHANNELS 3 Xrotation Yrotation Zrotation
		JOINT Head
		{
			OFFSET 0.00000 15.03989 0.00000
			CHANNELS 3 Xrotation Yrotation Zrotation
			End Site
			{
				OFFSET 0.00000 4.52755 0.00000
			}
		}
		JOINT LeftShoulder
		{
			OFFSET 0.00000 10.53037 0.00000
			CHANNELS 3 Xrotation Yrotation Zrotation
			JOINT LeftArm
			{
				OFFSET 7.02886 0.00000 0.00000
				CHANNELS 3 Xrotation Yrotation Zrotation
				JOINT LeftForeArm
				{
					OFFSET 10.79770 0.00000 0.00000
					CHANNELS 3 Yrotation Zrotation Xrotation
					JOINT LeftHand
					{
						OFFSET 7.90744 0.00000 0.00000
						CHANNELS 3 Xrotation Yrotation Zrotation
						JOINT LeftHandThumb1
						{
							OFFSET 0.00000 0.00000 0.00000
							CHANNELS 3 Xrotation Zrotation Yrotation
							End Site
							{
								OFFSET 0.00000 0.00000 3.93700
							}
						}
						End Site
						{
							OFFSET 3.93700 0.00000 0.00000
						}
					}
				}
			}
		}
		JOINT RightShoulder
		{
			OFFSET 0.00000 10.53037 0.00000
			CHANNELS 3 Xrotation Yrotation Zrotation
			JOINT RightArm
			{
				OFFSET -7.02886 0.00000 0.00000
				CHANNELS 3 Xrotation Yrotation Zrotation
				JOINT RightForeArm
				{
					OFFSET -10.79770 0.00000 0.00000
					CHANNELS 3 Yrotation Zrotation Xrotation
					JOINT RightHand
					{
						OFFSET -7.90744 0.00000 0.00000
						CHANNELS 3 Xrotation Yrotation Zrotation
						JOINT RightHandThumb1
						{
							OFFSET 0.00000 0.00000 0.00000
							CHANNELS 3 Xrotation Zrotation Yrotation
							End Site
							{
								OFFSET 0.00000 0.00000 3.93700
							}
						}
						End Site
						{
							OFFSET -3.93700 0.00000 0.00000
						}
					}
				}
			}
		}
	}
	JOINT LeftUpLeg
	{
		OFFSET 4.01300 0.00000 0.00000
		CHANNELS 3 Xrotation Yrotation Zrotation
		JOINT LeftLeg
		{
			OFFSET 0.00000 -16.89976 0.00000
			CHANNELS 3 Xrotation Yrotation Zrotation
			JOINT LeftFoot
			{
				OFFSET 0.00000 -17.38918 0.00000
				CHANNELS 3 Xrotation Yrotation Zrotation
				JOINT LeftToeBase
				{
					OFFSET 0.00000 -1.27456 4.75673
					CHANNELS 3 Xrotation Yrotation Zrotation
					End Site
					{
						OFFSET 0.00000 0.00000 2.95275
					}
				}
			}
		}
	}
	JOINT RightUpLeg
	{
		OFFSET -4.01300 0.00000 0.00000
		CHANNELS 3 Xrotation Yrotation Zrotation
		JOINT RightLeg
		{
			OFFSET 0.00000 -16.89976 0.00000
			CHANNELS 3 Xrotation Yrotation Zrotation
			JOINT RightFoot
			{
				OFFSET 0.00000 -17.38918 0.00000
				CHANNELS 3 Xrotation Yrotation Zrotation
				JOINT RightToeBase
				{
					OFFSET 0.00000 -1.27456 4.75673
					CHANNELS 3 Xrotation Yrotation Zrotation
					End Site
					{
						OFFSET 0.00000 0.00000 2.95275
					}
				}
			}
		}
	}
}
MOTION
Frames: 20
Frame Time: 0.008333
 19.7317 3.3239 -11.5773 -124.1809 7.4042 179.8229 66.2928 -7.3336 -9.4437 -11.3658 -7.4702 2.3046 -30.8963 -6.8803 -11.5370 -8.6335 -29.8864 -74.6913 -100.8603 -0.0000 -72.7495 -0.0451 1.7983 1.4370 33.1476 -0.0000 26.2537 -6.1687 10.1456 -26.3848 -26.7473 65.6407 21.8663 101.8002 0.0000 -2.9605 0.7784 -19.3844 2.3441 32.8623 0.0000 -24.3270 -38.4590 27.9546 17.3322 -1.5614 -0.0000 -0.0000 20.0863 35.4959 -3.8248 18.3080 0.0000 0.0000 -156.5399 -66.1607 -51.0493 115.8061 -0.0000 -0.0000 4.4119 -44.9952 -14.6375 3.6078 0.0000 -0.0000
 19.7349 3.3259 -11.5783 -124.1652 7.3935 179.7964 66.2934 -7.3301 -9.3948 -11.3620 -7.3723 2.2813 -30.9020 -6.8673 -11.5563 -8.5431 -29.8773 -74.6378 -100.9143 -0.0000 -72.7803 -0.0428 1.7504 1.4009 33.1476 -0.0000 26.2537 -6.1613 10.1284 -26.4118 -26.7411 65.7147 21.7817 101.8295 0.0000 -2.7712 0.8786 -19.1767 2.6730 32.8623 0.0000 -24.3270 -38.4458 27.9136 17.3492 -1.5603 -0.0000 -0.0000 20.1035 35.4903 -3.8304 18.2866 -0.0000 0.0000 -156.6966 -66.2162 -51.2080 115.9549 0.0000 -0.0000 5.6756 -44.8737 -14.1202 3.6662 -0.0000 0.0000
 19.7371 3.3264 -11.5796 -124.1620 7.3644 179.7785 66.2838 -7.3482 -9.3344 -11.3736 -7.2777 2.2789 -30.8986 -6.8397 -11.5600 -8.4659 -29.8399 -74.6066 -100.9646 -0.0000 -72.7324 -0.0440 1.9523 1.2910 33.1476 -0.0000 26.2537 -6.2277 10.1330 -26.4298 -26.6568 65.8202 21.6896 101.9144 0.0000 -2.5163 0.9373 -18.9953 2.8774 32.8623 0.0000 -24.3270 -38.4455 27.8759 17.3449 -1.5500 -0.0000 0.0000 20.0732 35.4706 -3.7690 18.3203 -0.0000 -0.0000 -156.8821 -66.2493 -51.3767 116.0906 0.0000 -0.0000 6.7885 -44.8123 -13.6497 3.7314 0.0000 -0.0000
 19.7387 3.3282 -11.5799 -124.1490 7.3523 179.7706 66.2878 -7.3380 -9.3044 -11.3814 -7.2170 2.2931 -30.9023 -6.8325 -11.5771 -8.4001 -29.8169 -74.5776 -101.0127 -0.0000 -72.6417 -0.0449 2.0678 1.2440 33.1476 -0.0000 26.2537 -6.2470 10.0934 -26.4433 -26.5723 65.9247 21.5534 102.0509 0.0000 -2.0853 0.9832 -18.7695 3.0530 32.8623 0.0000 -24.3270 -38.4174 27.8448 17.3353 -1.5636 -0.0000 -0.0000 20.1037 35.4650 -3.7833 18.2878 -0.0000 0.0000 -157.0570 -66.2880 -51.5467 116.2142 0.0000 -0.0000 7.9863 -44.8575 -13.0237 3.9570 -0.0000 -0.0000
 19.7381 3.3287 -11.5801 -124.1461 7.3477 179.7721 66.2788 -7.3526 -9.2699 -11.3778 -7.0981 2.3198 -30.9044 -6.7875 -11.5805 -8.3450 -29.8250 -74.5563 -101.0481 -0.0000 -72.5573 -0.0463 2.1329 1.2449 33.1476 -0.0000 26.2537 -6.2756 10.0558 -26.4932 -26.6250 66.0455 21.5672 102.1548 0.0000 -1.5725 1.0122 -18.4906 3.1887 32.8623 0.0000 -24.3270 -38.4145 27.8588 17.3113 -1.5895 0.0000 -0.0000 20.1041 35.5883 -3.8234 18.3401 0.0000 -0.0000 -157.1285 -66.2978 -51.6110 116.2878 0.0000 -0.0000 9.1857 -44.9745 -12.6374 4.2679 -0.0000 0.0000
 19.7391 3.3290 -11.5811 -124.1387 7.3316 179.7814 66.2609 -7.3538 -9.2539 -11.3558 -7.0338 2.3716 -30.8518 -6.7426 -11.5656 -8.4194 -29.9632 -74.5815 -100.8967 -0.0000 -72.6474 -0.0346 1.7634 1.1233 33.1476 -0.0000 26.2537 -6.2490 9.9989 -26.5064 -26.7547 66.1378 21.5897 102.2795 0.0000 -0.9862 1.0639 -18.2273 3.3979 32.8623 0.0000 -24.3270 -38.3963 27.8704 17.2876 -1.6031 0.0000 0.0000 20.1091 35.5280 -3.8056 18.3424 -0.0000 -0.0000 -157.2425 -66.3079 -51.7059 116.4079 -0.0000 0.0000 10.4000 -44.7374 -12.6390 5.5330 0.0000 0.0000
 19.7417 3.3287 -11.5824 -124.1374 7.3251 179.7996 66.2161 -7.3310 -9.2712 -11.2756 -7.0339 2.4488 -30.7661 -6.7451 -11.5589 -8.4804 -30.0581 -74.5755 -100.8451 -0.0000 -72.4494 -0.0358 1.6969 1.2104 33.1476 -0.0000 26.2537 -6.2455 9.9894 -26.4914 -26.7642 66.1655 21.5565 102.4028 0.0000 -0.5285 1.0919 -17.9770 3.5337 32.8623 0.0000 -24.3270 -38.3715 27.8356 17.2678 -1.5953 -0.0000 -0.0000 20.0993 35.4798 -3.7903 18.3643 0.0000 0.0000 -157.4210 -66.3244 -51.8495 116.5232 -0.0000 -0.0000 12.1518 -44.5610 -12.0114 6.7330 -0.0000 -0.0000
 19.7380 3.3296 -11.5834 -124.1235 7.2843 179.8237 66.2006 -7.3469 -9.2242 -11.2292 -7.0030 2.4845 -30.7921 -6.7126 -11.5986 -8.3704 -30.1319 -74.5049 -100.8854 -0.0000 -72.7534 -0.0390 1.5874 1.4063 33.1476 -0.0000 26.2537 -6.2492 9.9772 -26.5024 -26.8808 66.1969 21.6086 102.4616 0.0000 -0.1611 1.1170 -17.6922 3.6708 32.8623 0.0000 -24.3270 -38.3294 27.8270 17.1995 -1.5984 0.0000 -0.0000 20.0753 35.4485 -3.7924 18.3904 0.0000 -0.0000 -157.6133 -66.2647 -52.0248 116.6213 0.0000 -0.0000 14.4078 -44.6051 -10.7384 6.9503 -0.0000 0.0000
 19.7390 3.3332 -11.5838 -124.0544 7.2724 179.8157 66.2164 -7.4423 -9.1745 -11.1515 -6.8530 2.4684 -30.8397 -6.6060 -11.5786 -8.2571 -30.0983 -74.4372 -100.9068 -0.0000 -73.1457 -0.0425 1.6268 1.4950 33.1476 -0.0000 26.2537 -6.2219 10.0952 -26.5606 -27.1210 66.1997 21.7621 102.4419 0.0000 0.1314 1.1507 -17.4336 3.8357 32.8623 0.0000 -24.3270 -38.2471 27.8184 17.1860 -1.6054 -0.0000 0.0000 20.0788 35.4187 -3.8175 18.3672 0.0000 0.0000 -157.8551 -66.2769 -52.3224 116.7517 0.0000 0.0000 16.7476 -44.4975 -9.4351 7.5749 -0.0000 -0.0000
 19.7399 3.3355 -11.5847 -124.0692 7.2599 179.8437 66.1980 -7.2997 -9.2112 -11.1187 -6.9912 2.6148 -30.9324 -6.7310 -11.6450 -8.1362 -30.1299 -74.4651 -100.8990 -0.0000 -73.0835 -0.0446 1.6302 1.5671 33.1476 -0.0000 26.2537 -6.3116 9.9309 -26.4647 -27.2279 66.2332 21.8575 102.4140 0.0000 0.2479 1.1935 -17.2371 4.0215 32.8623 0.0000 -24.3270 -38.2337 27.8043 17.1589 -1.5825 0.0000 0.0000 20.0759 35.2651 -3.7355 18.2956 -0.0000 0.0000 -158.0688 -66.2656 -52.4965 116.8825 -0.0000 -0.0000 19.1520 -44.2737 -7.9419 8.6195 -0.0000 -0.0000
 19.7408 3.3382 -11.5843 -124.0508 7.2486 179.8398 66.1881 -7.2434 -9.1951 -11.0550 -7.0314 2.6774 -30.9503 -6.7542 -11.6762 -8.1249 -30.1248 -74.4791 -100.8232 -0.0000 -72.9756 -0.0437 1.6317 1.5340 33.1476 -0.0000 26.2537 -6.3246 9.9012 -26.4377 -27.4238 66.2241 21.9868 102.3268 0.0000 0.2127 1.2331 -17.0053 4.2095 32.8623 0.0000 -24.3270 -38.2040 27.7947 17.1519 -1.5887 0.0000 -0.0000 20.0653 35.2303 -3.7880 18.3858 -0.0000 -0.0000 -158.3654 -66.2784 -52.8053 117.0031 -0.0000 -0.0000 21.5599 -43.8786 -6.7413 9.5849 0.0000 -0.0000
 19.7417 3.3407 -11.5842 -124.0197 7.2328 179.8203 66.1880 -7.2075 -9.1468 -10.9935 -7.0101 2.6901 -30.9661 -6.7270 -11.7114 -8.0865 -30.1240 -74.4519 -100.7942 -0.0000 -73.0703 -0.0439 1.6521 1.5213 33.1476 -0.0000 26.2537 -6.3631 9.9212 -26.4344 -27.6105 66.2071 22.1329 102.1826 0.0000 0.0327 1.2838 -16.7162 4.4550 32.8623 0.0000 -24.3270 -38.1878 27.7895 17.1648 -1.5755 -0.0000 0.0000 20.0777 35.1867 -3.8335 18.3573 0.0000 -0.0000 -158.6818 -66.3065 -53.1480 117.1469 0.0000 0.0000 23.6466 -43.2004 -6.0048 11.1793 -0.0000 0.0000
 19.7441 3.3427 -11.5842 -123.9850 7.2044 179.7872 66.1944 -7.1318 -9.0767 -10.9284 -7.0433 2.6770 -31.0102 -6.7456 -11.7751 -8.0047 -30.0443 -74.4095 -100.8170 -0.0000 -73.0867 -0.0496 1.8396 1.5454 33.1476 -0.0000 26.2537 -6.3816 9.8985 -26.4361 -27.7152 66.2159 22.1707 101.9694 0.0000 -0.2590 1.3005 -16.3317 4.6155 32.8623 0.0000 -24.3270 -38.1717 27.7518 17.1835 -1.5538 0.0000 0.0000 20.0606 35.1747 -3.8580 18.3910 -0.0000 -0.0000 -159.0085 -66.3168 -53.5076 117.2871 0.0000 0.0000 25.7818 -42.4362 -4.8690 12.4314 0.0000 0.0000
 19.7459 3.3453 -11.5840 -123.9504 7.1797 179.7618 66.1961 -7.0728 -9.0216 -10.8614 -7.0497 2.6866 -30.9950 -6.7656 -11.8251 -7.9868 -30.0150 -74.3573 -100.7945 -0.0000 -73.1749 -0.0488 1.8517 1.5109 33.1476 -0.0000 26.2537 -6.3849 9.8928 -26.4256 -27.7409 66.2144 22.1249 101.7573 0.0000 -0.6299 1.3029 -15.9227 4.7394 32.8623 0.0000 -24.3270 -38.1566 27.7504 17.1978 -1.5430 -0.0000 -0.0000 20.0572 35.1639 -3.8565 18.4056 0.0000 0.0000 -159.3374 -66.3326 -53.8656 117.4540 0.0000 0.0000 27.6101 -41.4630 -4.0170 13.6282 0.0000 -0.0000
 19.7482 3.3474 -11.5839 -123.9160 7.1500 179.7243 66.1945 -7.0337 -8.9452 -10.8120 -7.0213 2.6691 -30.9986 -6.7454 -11.8571 -7.9988 -29.9679 -74.3170 -100.7315 -0.0000 -73.3760 -0.0493 1.9422 1.4555 33.1476 -0.0000 26.2537 -6.4009 9.9172 -26.4337 -27.7925 66.2100 22.1219 101.5463 0.0000 -1.0636 1.3085 -15.4540 4.8995 32.8623 0.0000 -24.3270 -38.1483 27.7269 17.2242 -1.5213 -0.0000 -0.0000 19.9969 35.1634 -3.8521 18.4860 -0.0000 -0.0000 -159.6981 -66.3490 -54.2598 117.6284 -0.0000 0.0000 29.2683 -40.3742 -3.1614 14.6607 -0.0000 0.0000
 19.7503 3.3500 -11.5832 -123.8817 7.1180 179.7015 66.2008 -6.9905 -8.8839 -10.7788 -7.0298 2.6586 -31.0091 -6.7664 -11.9029 -7.9649 -29.9345 -74.2572 -100.7332 -0.0000 -73.4124 -0.0505 1.9089 1.5150 33.1476 -0.0000 26.2537 -6.4388 9.9259 -26.4336 -27.7328 66.2159 22.0467 101.3726 0.0000 -1.3427 1.2762 -14.9813 4.9255 32.8623 0.0000 -24.3270 -38.1331 27.7309 17.2332 -1.5185 0.0000 0.0000 20.0074 35.1770 -3.8198 18.4317 0.0000 -0.0000 -160.0448 -66.3569 -54.6350 117.8068 0.0000 0.0000 30.7381 -39.2926 -2.4282 15.3738 -0.0000 -0.0000
 19.7526 3.3518 -11.5832 -123.8550 7.0986 179.6816 66.1925 -7.0017 -8.8412 -10.7785 -7.0188 2.6680 -30.9953 -6.7487 -11.8981 -7.9479 -29.9064 -74.2172 -100.7935 -0.0000 -73.3051 -0.0553 1.9247 1.6457 33.1476 -0.0000 26.2537 -6.4594 9.9629 -26.4251 -27.6856 66.2378 21.9723 101.2593 0.0000 -1.4370 1.2253 -14.5445 4.8683 32.8623 0.0000 -24.3270 -38.1238 27.7395 17.2503 -1.5237 -0.0000 0.0000 19.9951 35.2089 -3.8081 18.4436 -0.0000 0.0000 -160.3917 -66.3925 -54.9962 117.9603 -0.0000 -0.0000 31.9371 -38.3447 -1.7806 16.2526 -0.0000 0.0000
 19.7546 3.3529 -11.5829 -123.8332 7.0823 179.6673 66.1815 -7.0083 -8.8079 -10.7755 -7.0105 2.6938 -30.9983 -6.7499 -11.8920 -7.9105 -29.8475 -74.2060 -100.8874 -0.0000 -73.0909 -0.0618 1.9882 1.7804 33.1476 -0.0000 26.2537 -6.4465 9.9777 -26.4260 -27.6293 66.2595 21.8704 101.2152 0.0000 -1.3570 1.1607 -14.1444 4.7396 32.8623 0.0000 -24.3270 -38.1205 27.7548 17.2651 -1.5196 -0.0000 0.0000 19.9776 35.2444 -3.8060 18.3987 0.0000 -0.0000 -160.9428 -66.4364 -55.5378 118.0921 -0.0000 -0.0000 33.3776 -37.7493 -0.5171 16.2541 -0.0000 0.0000
 19.7563 3.3551 -11.5829 -123.7833 7.0460 179.6359 66.1881 -7.0811 -8.7219 -10.7756 -6.9464 2.6610 -31.0493 -6.6971 -11.8745 -7.8146 -29.7496 -74.1781 -100.9404 -0.0000 -72.9216 -0.0602 2.0373 1.6933 33.1476 -0.0000 26.2537 -6.4455 10.1060 -26.4858 -27.5993 66.2443 21.8632 101.2461 0.0000 -1.1604 1.1124 -13.8784 4.6280 32.8623 0.0000 -24.3270 -38.0943 27.7517 17.2826 -1.5148 0.0000 -0.0000 19.9371 35.2564 -3.7888 18.3661 -0.0000 0.0000 -161.4266 -66.4557 -56.0559 118.2307 0.0000 -0.0000 34.6759 -37.0168 0.6006 16.2277 0.0000 0.0000
 19.7583 3.3567 -11.5831 -123.7822 7.0325 179.6314 66.1763 -7.0225 -8.7168 -10.8211 -7.0347 2.7425 -30.9904 -6.7255 -11.8989 -7.8540 -29.8051 -74.1690 -100.9860 -0.0000 -72.9204 -0.0578 1.9130 1.7312 33.1476 -0.0000 26.2537 -6.4293 10.0263 -26.4432 -27.4941 66.2738 21.7111 101.3558 0.0000 -0.9499 1.0657 -13.7608 4.4714 32.8623 0.0000 -24.3270 -38.1135 27.7851 17.2966 -1.5059 -0.0000 0.0000 19.9015 35.2554 -3.7467 18.3604 -0.0000 0.0000 -161.9633 -66.5275 -56.5647 118.3891 -0.0000 -0.0000 35.6145 -36.2241 1.1771 16.5555 0.0000 -0.0000
